<svg width="250" height="33" viewBox="0 0 6501 852" fill="none" xmlns="http://www.w3.org/2000/svg">
    <path d="M1645 532.5C1645 708.955 1501.94 852 1325.47 852C1148.99 852 1005.94 708.955 1005.94 532.5C1005.94 356.045 1148.99 213 1325.47 213C1501.94 213 1645 356.045 1645 532.5Z" fill="#0064FF"/>
    <path d="M0 804.667C0 778.525 21.194 757.333 47.3381 757.333H1307.72C1333.86 757.333 1355.05 778.525 1355.05 804.667C1355.05 830.808 1333.86 852 1307.72 852H47.3382C21.194 852 0 830.808 0 804.667Z" fill="#0064FF"/>
    <path d="M0 621.25C0 595.109 21.194 573.917 47.3381 573.917H1307.72C1333.86 573.917 1355.05 595.109 1355.05 621.25C1355.05 647.391 1333.86 668.583 1307.72 668.583H47.3382C21.194 668.583 0 647.391 0 621.25Z" fill="#0064FF"/>
    <path d="M266.277 437.833C266.277 411.692 287.471 390.5 313.615 390.5H917.176C943.32 390.5 964.514 411.692 964.514 437.833C964.514 463.975 943.32 485.167 917.176 485.167H313.615C287.471 485.167 266.277 463.975 266.277 437.833Z" fill="#0064FF"/>
    <path d="M130.18 260.333C130.18 234.192 151.374 213 177.518 213H781.079C807.223 213 828.417 234.192 828.417 260.333C828.417 286.475 807.223 307.667 781.079 307.667H177.518C151.374 307.667 130.18 286.475 130.18 260.333Z" fill="#0064FF"/>
    <path d="M908.3 0C1138.7 0 1325.47 186.753 1325.47 417.125C1325.47 647.497 1138.7 834.25 908.3 834.25C818.328 834.25 735.008 805.769 666.866 757.333H671.61C696.12 757.333 715.989 737.466 715.989 712.958C715.989 688.451 696.12 668.583 671.61 668.583H575.437C553.597 639.725 535.427 607.939 521.615 573.917H896.466C920.976 573.917 940.845 554.049 940.845 529.542C940.845 505.034 920.976 485.167 896.466 485.167H496.657C493.024 463.024 491.133 440.295 491.133 417.125C491.133 408.182 491.411 399.304 491.965 390.5H763.327C786.203 390.5 804.748 371.957 804.748 349.083C804.748 326.21 786.203 307.667 763.327 307.667H505.649C553.735 130.391 715.787 0 908.3 0Z" fill="#0064FF"/>
    <path d="M1782.08 814V304.696H2133.57V396.514H1830.86L1891.12 334.107V567.239L1830.86 519.895H2120.66V610.278H1830.86L1891.12 562.935V814H1782.08ZM2305.11 822.608C2265.41 822.608 2232.89 813.522 2207.55 795.349C2182.68 776.699 2170.25 750.875 2170.25 717.878C2170.25 683.924 2180.77 657.861 2201.81 639.689C2223.33 621.038 2254.89 607.409 2296.5 598.801L2420.6 574.412C2420.6 549.545 2414.86 530.894 2403.38 518.46C2392.38 505.548 2376.36 499.092 2355.32 499.092C2334.75 499.092 2318.73 503.875 2307.26 513.439C2295.78 522.525 2288.37 536.154 2285.02 554.327L2176.7 549.305C2183.88 507.222 2202.77 475.421 2233.37 453.901C2264.46 431.903 2305.11 420.903 2355.32 420.903C2412.7 420.903 2455.74 434.533 2484.44 461.791C2513.61 489.05 2528.19 528.981 2528.19 581.585V712.857C2528.19 723.856 2529.87 731.268 2533.22 735.094C2537.04 738.441 2542.54 740.115 2549.71 740.115H2560.47V814C2557.13 814.956 2551.63 815.913 2543.98 816.869C2536.8 817.826 2529.63 818.304 2522.46 818.304C2507.15 818.304 2492.81 815.674 2479.42 810.413C2466.5 805.153 2455.98 796.306 2447.85 783.872C2439.72 770.96 2435.66 752.788 2435.66 729.355L2444.98 736.528C2440.2 753.744 2431.59 768.808 2419.16 781.72C2407.21 794.632 2391.42 804.675 2371.82 811.848C2352.69 819.021 2330.45 822.608 2305.11 822.608ZM2330.93 748.723C2348.62 748.723 2364.17 745.375 2377.56 738.68C2390.95 731.507 2401.47 721.225 2409.12 707.835C2416.77 694.445 2420.6 678.664 2420.6 660.492V641.841L2333.08 660.492C2315.87 663.839 2302.71 669.578 2293.63 677.707C2285.02 685.359 2280.72 695.402 2280.72 707.835C2280.72 720.747 2285.02 730.79 2293.63 737.963C2302.24 745.136 2314.67 748.723 2330.93 748.723ZM2774.23 822.608C2734.54 822.608 2701.3 817.108 2674.52 806.109C2647.74 794.632 2627.17 779.329 2612.83 760.2C2598.96 740.593 2591.07 718.117 2589.16 692.771L2698.19 689.185C2701.54 707.357 2709.19 721.465 2721.14 731.507C2733.1 741.55 2750.79 746.571 2774.23 746.571C2793.36 746.571 2808.18 743.463 2818.7 737.246C2829.7 731.029 2835.2 721.465 2835.2 708.553C2835.2 700.423 2833.29 693.728 2829.46 688.467C2825.64 682.729 2817.98 677.947 2806.51 674.121C2795.51 669.817 2779.01 665.991 2757.01 662.644C2716.36 655.47 2684.56 647.101 2661.61 637.537C2638.65 627.973 2622.39 615.539 2612.83 600.236C2603.26 584.933 2598.48 566.282 2598.48 544.284C2598.48 507.461 2612.59 477.812 2640.8 455.335C2669.5 432.381 2712.3 420.903 2769.21 420.903C2805.55 420.903 2835.92 426.642 2860.31 438.119C2885.17 449.597 2904.3 465.378 2917.69 485.463C2931.56 505.07 2940.17 527.546 2943.52 552.892L2835.2 557.196C2833.77 544.762 2829.94 534.242 2823.72 525.634C2817.98 516.547 2810.57 509.613 2801.49 504.831C2792.4 499.571 2781.4 496.94 2768.49 496.94C2749.36 496.94 2734.54 501.005 2724.01 509.135C2713.97 516.787 2708.95 527.068 2708.95 539.98C2708.95 549.545 2711.1 557.435 2715.41 563.652C2720.19 569.391 2727.84 574.173 2738.36 577.999C2748.88 581.824 2762.99 584.933 2780.68 587.324C2821.81 593.063 2854.33 601.192 2878.24 611.713C2902.63 621.756 2920.08 634.429 2930.61 649.732C2941.13 665.035 2946.39 683.924 2946.39 706.401C2946.39 731.268 2939.21 752.31 2924.87 769.526C2910.52 786.741 2890.43 799.893 2864.61 808.979C2839.27 818.065 2809.14 822.608 2774.23 822.608ZM3160.09 814C3120.4 814 3091.23 804.914 3072.58 786.741C3053.93 768.091 3044.6 738.68 3044.6 698.51V339.128H3152.2V685.598C3152.2 704.249 3156.03 716.921 3163.68 723.617C3171.81 730.312 3183.77 733.659 3199.55 733.659H3253.35V814H3160.09ZM2982.91 509.852V429.511H3253.35V509.852H2982.91ZM3541.94 825.477C3495.55 825.477 3454.18 814.956 3417.84 793.915C3381.97 772.873 3353.76 742.506 3333.2 702.814C3313.11 663.122 3303.07 615.539 3303.07 560.065C3303.07 506.027 3312.87 459.161 3332.48 419.469C3352.08 379.298 3380.06 348.214 3416.41 326.216C3452.75 304.218 3495.31 293.219 3544.09 293.219C3610.56 293.219 3662.21 309.717 3699.03 342.715C3736.33 375.234 3760.25 421.86 3770.77 482.594L3657.43 486.898C3651.69 454.857 3639.26 429.99 3620.13 412.296C3601 394.123 3575.65 385.037 3544.09 385.037C3516.83 385.037 3493.64 392.21 3474.51 406.557C3455.38 420.903 3440.79 441.228 3430.75 467.53C3420.71 493.832 3415.69 524.677 3415.69 560.065C3415.69 595.932 3420.71 627.016 3430.75 653.318C3441.27 679.142 3456.1 698.988 3475.23 712.857C3494.36 726.725 3517.07 733.659 3543.37 733.659C3577.8 733.659 3604.35 724.095 3623 704.966C3642.12 685.359 3654.08 658.34 3658.86 623.908L3772.92 628.212C3766.22 669.817 3753.07 705.205 3733.46 734.376C3713.86 763.548 3688.03 786.024 3655.99 801.805C3624.43 817.587 3586.41 825.477 3541.94 825.477ZM3939.09 814C3907.53 814 3882.9 806.109 3865.21 790.328C3847.51 774.547 3838.67 748.962 3838.67 713.574V304.696H3946.26V702.097C3946.26 713.574 3948.9 721.704 3954.16 726.486C3959.42 731.268 3967.07 733.659 3977.11 733.659H4002.93V814H3939.09ZM4230.84 822.608C4191.62 822.608 4157.43 814.478 4128.26 798.219C4099.09 781.481 4076.37 758.048 4060.11 727.92C4043.85 697.793 4035.72 662.404 4035.72 621.756C4035.72 581.107 4043.85 545.958 4060.11 516.308C4076.37 486.18 4099.09 462.748 4128.26 446.01C4157.43 429.272 4191.62 420.903 4230.84 420.903C4270.05 420.903 4304.24 429.272 4333.42 446.01C4362.59 462.748 4385.3 486.18 4401.56 516.308C4417.82 545.958 4425.95 581.107 4425.95 621.756C4425.95 662.404 4417.82 697.793 4401.56 727.92C4385.3 758.048 4362.59 781.481 4333.42 798.219C4304.24 814.478 4270.05 822.608 4230.84 822.608ZM4230.84 740.115C4257.62 740.115 4278.42 729.833 4293.25 709.27C4308.07 688.228 4315.48 659.057 4315.48 621.756C4315.48 584.455 4308.07 555.522 4293.25 534.959C4278.42 513.917 4257.62 503.396 4230.84 503.396C4204.06 503.396 4183.25 513.917 4168.43 534.959C4153.6 555.522 4146.19 584.455 4146.19 621.756C4146.19 659.057 4153.6 688.228 4168.43 709.27C4183.25 729.833 4204.06 740.115 4230.84 740.115ZM4619.2 822.608C4579.51 822.608 4548.42 809.935 4525.95 784.589C4503.95 758.766 4492.95 722.899 4492.95 676.99V429.511H4600.55V651.884C4600.55 681.533 4605.09 703.292 4614.18 717.161C4623.26 730.551 4637.61 737.246 4657.22 737.246C4679.22 737.246 4696.19 729.833 4708.15 715.009C4720.58 699.706 4726.8 676.99 4726.8 646.862V429.511H4834.4V814H4736.12L4733.25 703.531L4746.88 706.401C4741.14 744.658 4727.52 773.59 4706 793.197C4684.48 812.804 4655.54 822.608 4619.2 822.608ZM5058.67 822.608C5026.16 822.608 4997.94 814.478 4974.03 798.219C4950.6 781.481 4932.42 758.287 4919.51 728.638C4907.08 698.51 4900.86 662.883 4900.86 621.756C4900.86 580.629 4907.32 545.241 4920.23 515.591C4933.14 485.463 4951.31 462.269 4974.75 446.01C4998.66 429.272 5026.63 420.903 5058.67 420.903C5085.93 420.903 5109.37 426.642 5128.97 438.119C5149.06 449.118 5164.12 464.421 5174.16 484.028V304.696H5281.76V814H5179.19L5177.03 757.331C5166.51 777.894 5150.73 793.915 5129.69 805.392C5109.13 816.869 5085.45 822.608 5058.67 822.608ZM5093.82 740.115C5111.04 740.115 5125.63 735.572 5137.58 726.486C5149.54 717.4 5158.62 704.249 5164.84 687.033C5171.06 669.339 5174.16 647.58 5174.16 621.756C5174.16 595.454 5171.06 573.695 5164.84 556.479C5158.62 538.785 5149.54 525.634 5137.58 517.026C5125.63 507.939 5111.04 503.396 5093.82 503.396C5068.48 503.396 5048.39 514.156 5033.57 535.676C5018.74 556.718 5011.33 585.411 5011.33 621.756C5011.33 657.622 5018.74 686.315 5033.57 707.835C5048.87 729.355 5068.96 740.115 5093.82 740.115ZM5475.01 814L5337.28 304.696H5451.34L5538.85 663.361L5627.09 304.696H5722.49L5811.44 663.361L5898.24 304.696H6012.29L5875.28 814H5757.64L5674.43 488.332L5591.22 814H5475.01ZM6072.05 814V304.696H6275.77C6336.98 304.696 6384.8 319.521 6419.24 349.171C6454.15 378.82 6471.6 419.469 6471.6 471.117C6471.6 505.07 6463.71 534.72 6447.93 560.065C6432.63 584.933 6410.15 604.301 6380.5 618.169C6351.33 631.559 6316.42 638.254 6275.77 638.254H6181.08V814H6072.05ZM6181.08 546.436H6269.31C6298.01 546.436 6320.24 540.219 6336.03 527.786C6351.81 514.874 6359.7 495.984 6359.7 471.117C6359.7 446.727 6351.81 428.316 6336.03 415.882C6320.72 402.97 6298.49 396.514 6269.31 396.514H6181.08V546.436Z" fill="#0064FF"/>
</svg>
