<svg width="150" height="78" viewBox="0 0 1645 852" fill="none" xmlns="http://www.w3.org/2000/svg">
<path d="M1645 532.5C1645 708.955 1501.94 852 1325.47 852C1148.99 852 1005.94 708.955 1005.94 532.5C1005.94 356.045 1148.99 213 1325.47 213C1501.94 213 1645 356.045 1645 532.5Z" fill="#0064FF"/>
<path d="M0 804.667C0 778.525 21.194 757.333 47.3381 757.333H1307.72C1333.86 757.333 1355.05 778.525 1355.05 804.667C1355.05 830.808 1333.86 852 1307.72 852H47.3382C21.194 852 0 830.808 0 804.667Z" fill="#0064FF"/>
<path d="M0 621.25C0 595.109 21.194 573.917 47.3381 573.917H1307.72C1333.86 573.917 1355.05 595.109 1355.05 621.25C1355.05 647.391 1333.86 668.583 1307.72 668.583H47.3382C21.194 668.583 0 647.391 0 621.25Z" fill="#0064FF"/>
<path d="M266.277 437.833C266.277 411.692 287.471 390.5 313.615 390.5H917.176C943.32 390.5 964.514 411.692 964.514 437.833C964.514 463.975 943.32 485.167 917.176 485.167H313.615C287.471 485.167 266.277 463.975 266.277 437.833Z" fill="#0064FF"/>
<path d="M130.18 260.333C130.18 234.192 151.374 213 177.518 213H781.079C807.223 213 828.417 234.192 828.417 260.333C828.417 286.475 807.223 307.667 781.079 307.667H177.518C151.374 307.667 130.18 286.475 130.18 260.333Z" fill="#0064FF"/>
<path d="M908.3 0C1138.7 0 1325.47 186.753 1325.47 417.125C1325.47 647.497 1138.7 834.25 908.3 834.25C818.328 834.25 735.008 805.769 666.866 757.333H671.61C696.12 757.333 715.989 737.466 715.989 712.958C715.989 688.451 696.12 668.583 671.61 668.583H575.437C553.597 639.725 535.427 607.939 521.615 573.917H896.466C920.976 573.917 940.845 554.049 940.845 529.542C940.845 505.034 920.976 485.167 896.466 485.167H496.657C493.024 463.024 491.133 440.295 491.133 417.125C491.133 408.182 491.411 399.304 491.965 390.5H763.327C786.203 390.5 804.748 371.957 804.748 349.083C804.748 326.21 786.203 307.667 763.327 307.667H505.649C553.735 130.391 715.787 0 908.3 0Z" fill="#0064FF"/>
</svg>
